<mxfile host="app.diagrams.net" modified="2023-06-14T10:55:29.019Z" agent="Mozilla/5.0 (Windows NT 10.0; Win64; x64) AppleWebKit/537.36 (KHTML, like Gecko) Chrome/109.0.0.0 Safari/537.36" etag="eCtYnfHs0da8Y60--fNk" version="21.3.8" type="device">
  <diagram id="9vFwx_2lyHLM0nxalQIg" name="Page-1">
    <mxGraphModel dx="880" dy="395" grid="1" gridSize="10" guides="1" tooltips="1" connect="1" arrows="1" fold="1" page="1" pageScale="1" pageWidth="850" pageHeight="1100" background="#ffffff" math="0" shadow="0">
      <root>
        <mxCell id="0" />
        <mxCell id="1" parent="0" />
        <mxCell id="12" value="AbsWorker" style="swimlane;fontStyle=3;align=center;verticalAlign=top;childLayout=stackLayout;horizontal=1;startSize=26;horizontalStack=0;resizeParent=1;resizeParentMax=0;resizeLast=0;collapsible=1;marginBottom=0;fontColor=#000000;strokeColor=#0000CC;strokeWidth=2;fillColor=#FFFFFF;" parent="1" vertex="1">
          <mxGeometry x="225" y="210" width="270" height="112" as="geometry" />
        </mxCell>
        <mxCell id="16" value="# __next_worker: BaseWorker" style="text;align=left;verticalAlign=top;spacingLeft=4;spacingRight=4;overflow=hidden;rotatable=0;points=[[0,0.5],[1,0.5]];portConstraint=eastwest;fontColor=#000000;strokeColor=#0000CC;strokeWidth=2;fillColor=#FFFFFF;" parent="12" vertex="1">
          <mxGeometry y="26" width="270" height="26" as="geometry" />
        </mxCell>
        <mxCell id="13" value="" style="line;strokeWidth=2;align=left;verticalAlign=middle;spacingTop=-1;spacingLeft=3;spacingRight=3;rotatable=0;labelPosition=right;points=[];portConstraint=eastwest;fontColor=#000000;strokeColor=#0000CC;fillColor=#FFFFFF;" parent="12" vertex="1">
          <mxGeometry y="52" width="270" height="8" as="geometry" />
        </mxCell>
        <mxCell id="14" value="+ set_next_worker(BaseWorker): BaseWorker" style="text;align=left;verticalAlign=top;spacingLeft=4;spacingRight=4;overflow=hidden;rotatable=0;points=[[0,0.5],[1,0.5]];portConstraint=eastwest;fontColor=#000000;strokeColor=#0000CC;strokeWidth=2;fillColor=#FFFFFF;" parent="12" vertex="1">
          <mxGeometry y="60" width="270" height="26" as="geometry" />
        </mxCell>
        <mxCell id="15" value="+ execute(str): str" style="text;align=left;verticalAlign=top;spacingLeft=4;spacingRight=4;overflow=hidden;rotatable=0;points=[[0,0.5],[1,0.5]];portConstraint=eastwest;fontColor=#000000;strokeColor=#0000CC;strokeWidth=2;fillColor=#FFFFFF;" parent="12" vertex="1">
          <mxGeometry y="86" width="270" height="26" as="geometry" />
        </mxCell>
        <mxCell id="33" value="return" style="html=1;verticalAlign=bottom;endArrow=open;dashed=1;endSize=8;strokeColor=#000099;strokeWidth=2;entryX=1;entryY=0.5;entryDx=0;entryDy=0;exitX=1;exitY=0.5;exitDx=0;exitDy=0;fontSize=17;fontColor=#000000;labelBackgroundColor=#FFFFFF;" parent="12" source="14" target="16" edge="1">
          <mxGeometry x="-0.043" y="-30" relative="1" as="geometry">
            <mxPoint x="320" y="111" as="sourcePoint" />
            <mxPoint x="240" y="111" as="targetPoint" />
            <Array as="points">
              <mxPoint x="335" y="73" />
              <mxPoint x="335" y="40" />
            </Array>
            <mxPoint as="offset" />
          </mxGeometry>
        </mxCell>
        <mxCell id="2" value="BaseWorker" style="swimlane;fontStyle=3;align=center;verticalAlign=top;childLayout=stackLayout;horizontal=1;startSize=26;horizontalStack=0;resizeParent=1;resizeParentMax=0;resizeLast=0;collapsible=1;marginBottom=0;fontColor=#000000;strokeColor=#0000CC;strokeWidth=2;fillColor=#FFFFFF;" parent="1" vertex="1">
          <mxGeometry x="230" y="10" width="260" height="86" as="geometry" />
        </mxCell>
        <mxCell id="4" value="" style="line;strokeWidth=2;align=left;verticalAlign=middle;spacingTop=-1;spacingLeft=3;spacingRight=3;rotatable=0;labelPosition=right;points=[];portConstraint=eastwest;fontColor=#000000;strokeColor=#0000CC;fillColor=#FFFFFF;" parent="2" vertex="1">
          <mxGeometry y="26" width="260" height="8" as="geometry" />
        </mxCell>
        <mxCell id="5" value="+ set_next_worker(BaseWorker): BaseWorker" style="text;align=left;verticalAlign=top;spacingLeft=4;spacingRight=4;overflow=hidden;rotatable=0;points=[[0,0.5],[1,0.5]];portConstraint=eastwest;fontColor=#000000;strokeColor=#0000CC;strokeWidth=2;fillColor=#FFFFFF;" parent="2" vertex="1">
          <mxGeometry y="34" width="260" height="26" as="geometry" />
        </mxCell>
        <mxCell id="11" value="+ execute(str): str" style="text;align=left;verticalAlign=top;spacingLeft=4;spacingRight=4;overflow=hidden;rotatable=0;points=[[0,0.5],[1,0.5]];portConstraint=eastwest;fontColor=#000000;strokeColor=#0000CC;strokeWidth=2;fillColor=#FFFFFF;" parent="2" vertex="1">
          <mxGeometry y="60" width="260" height="26" as="geometry" />
        </mxCell>
        <mxCell id="17" value="Designer" style="swimlane;fontStyle=1;align=center;verticalAlign=top;childLayout=stackLayout;horizontal=1;startSize=30;horizontalStack=0;resizeParent=1;resizeParentMax=0;resizeLast=0;collapsible=1;marginBottom=0;fontColor=#000000;strokeColor=#0000CC;strokeWidth=2;fillColor=#FFFFFF;" parent="1" vertex="1">
          <mxGeometry x="60" y="390" width="170" height="90" as="geometry" />
        </mxCell>
        <mxCell id="18" value="..." style="text;align=left;verticalAlign=top;spacingLeft=4;spacingRight=4;overflow=hidden;rotatable=0;points=[[0,0.5],[1,0.5]];portConstraint=eastwest;fontColor=#000000;strokeColor=#0000CC;strokeWidth=2;fillColor=#FFFFFF;" parent="17" vertex="1">
          <mxGeometry y="30" width="170" height="26" as="geometry" />
        </mxCell>
        <mxCell id="19" value="" style="line;strokeWidth=2;align=left;verticalAlign=middle;spacingTop=-1;spacingLeft=3;spacingRight=3;rotatable=0;labelPosition=right;points=[];portConstraint=eastwest;fontColor=#000000;strokeColor=#0000CC;fillColor=#FFFFFF;" parent="17" vertex="1">
          <mxGeometry y="56" width="170" height="8" as="geometry" />
        </mxCell>
        <mxCell id="21" value="+ execute(str): str" style="text;align=left;verticalAlign=top;spacingLeft=4;spacingRight=4;overflow=hidden;rotatable=0;points=[[0,0.5],[1,0.5]];portConstraint=eastwest;fontColor=#000000;strokeColor=#0000CC;strokeWidth=2;fillColor=#FFFFFF;" parent="17" vertex="1">
          <mxGeometry y="64" width="170" height="26" as="geometry" />
        </mxCell>
        <mxCell id="22" value="Carpenters" style="swimlane;fontStyle=1;align=center;verticalAlign=top;childLayout=stackLayout;horizontal=1;startSize=26;horizontalStack=0;resizeParent=1;resizeParentMax=0;resizeLast=0;collapsible=1;marginBottom=0;fontColor=#000000;strokeColor=#0000CC;strokeWidth=2;fillColor=#FFFFFF;" parent="1" vertex="1">
          <mxGeometry x="270" y="400" width="170" height="86" as="geometry" />
        </mxCell>
        <mxCell id="23" value="..." style="text;align=left;verticalAlign=top;spacingLeft=4;spacingRight=4;overflow=hidden;rotatable=0;points=[[0,0.5],[1,0.5]];portConstraint=eastwest;fontColor=#000000;strokeColor=#0000CC;strokeWidth=2;fillColor=#FFFFFF;" parent="22" vertex="1">
          <mxGeometry y="26" width="170" height="26" as="geometry" />
        </mxCell>
        <mxCell id="24" value="" style="line;strokeWidth=2;align=left;verticalAlign=middle;spacingTop=-1;spacingLeft=3;spacingRight=3;rotatable=0;labelPosition=right;points=[];portConstraint=eastwest;fontColor=#000000;strokeColor=#0000CC;fillColor=#FFFFFF;" parent="22" vertex="1">
          <mxGeometry y="52" width="170" height="8" as="geometry" />
        </mxCell>
        <mxCell id="26" value="+ execute(str): str" style="text;align=left;verticalAlign=top;spacingLeft=4;spacingRight=4;overflow=hidden;rotatable=0;points=[[0,0.5],[1,0.5]];portConstraint=eastwest;fontColor=#000000;strokeColor=#0000CC;strokeWidth=2;fillColor=#FFFFFF;" parent="22" vertex="1">
          <mxGeometry y="60" width="170" height="26" as="geometry" />
        </mxCell>
        <mxCell id="27" value="DogHandler" style="swimlane;fontStyle=1;align=center;verticalAlign=top;childLayout=stackLayout;horizontal=1;startSize=26;horizontalStack=0;resizeParent=1;resizeParentMax=0;resizeLast=0;collapsible=1;marginBottom=0;fontColor=#000000;strokeColor=#0000CC;strokeWidth=2;fillColor=#FFFFFF;" parent="1" vertex="1">
          <mxGeometry x="500" y="410" width="170" height="86" as="geometry" />
        </mxCell>
        <mxCell id="28" value="..." style="text;align=left;verticalAlign=top;spacingLeft=4;spacingRight=4;overflow=hidden;rotatable=0;points=[[0,0.5],[1,0.5]];portConstraint=eastwest;fontColor=#000000;strokeColor=#0000CC;strokeWidth=2;fillColor=#FFFFFF;" parent="27" vertex="1">
          <mxGeometry y="26" width="170" height="26" as="geometry" />
        </mxCell>
        <mxCell id="29" value="" style="line;strokeWidth=2;align=left;verticalAlign=middle;spacingTop=-1;spacingLeft=3;spacingRight=3;rotatable=0;labelPosition=right;points=[];portConstraint=eastwest;fontColor=#000000;strokeColor=#0000CC;fillColor=#FFFFFF;" parent="27" vertex="1">
          <mxGeometry y="52" width="170" height="8" as="geometry" />
        </mxCell>
        <mxCell id="31" value="+ execute(str): str" style="text;align=left;verticalAlign=top;spacingLeft=4;spacingRight=4;overflow=hidden;rotatable=0;points=[[0,0.5],[1,0.5]];portConstraint=eastwest;fontColor=#000000;strokeColor=#0000CC;strokeWidth=2;fillColor=#FFFFFF;" parent="27" vertex="1">
          <mxGeometry y="60" width="170" height="26" as="geometry" />
        </mxCell>
        <mxCell id="32" value="" style="endArrow=block;dashed=1;endFill=0;endSize=12;html=1;strokeWidth=2;strokeColor=#000099;entryX=0.5;entryY=1;entryDx=0;entryDy=0;exitX=0.5;exitY=0;exitDx=0;exitDy=0;" parent="1" source="12" target="2" edge="1">
          <mxGeometry width="160" relative="1" as="geometry">
            <mxPoint x="220" y="160" as="sourcePoint" />
            <mxPoint x="380" y="160" as="targetPoint" />
          </mxGeometry>
        </mxCell>
        <mxCell id="34" value="Extends" style="endArrow=block;endSize=16;endFill=0;html=1;labelBackgroundColor=#FFFFFF;strokeColor=#000099;strokeWidth=2;fontSize=17;fontColor=#000000;exitX=0.5;exitY=0;exitDx=0;exitDy=0;entryX=0.078;entryY=1.154;entryDx=0;entryDy=0;entryPerimeter=0;" parent="1" source="17" target="15" edge="1">
          <mxGeometry width="160" relative="1" as="geometry">
            <mxPoint x="340" y="320" as="sourcePoint" />
            <mxPoint x="500" y="320" as="targetPoint" />
          </mxGeometry>
        </mxCell>
        <mxCell id="40" value="Extends" style="endArrow=block;endSize=16;endFill=0;html=1;labelBackgroundColor=#FFFFFF;strokeColor=#000099;strokeWidth=2;fontSize=17;fontColor=#000000;exitX=0.5;exitY=0;exitDx=0;exitDy=0;entryX=0.515;entryY=1.115;entryDx=0;entryDy=0;entryPerimeter=0;" parent="1" source="22" target="15" edge="1">
          <mxGeometry width="160" relative="1" as="geometry">
            <mxPoint x="340" y="330" as="sourcePoint" />
            <mxPoint x="415" y="340" as="targetPoint" />
          </mxGeometry>
        </mxCell>
        <mxCell id="41" value="Extends" style="endArrow=block;endSize=16;endFill=0;html=1;labelBackgroundColor=#FFFFFF;strokeColor=#000099;strokeWidth=2;fontSize=17;fontColor=#000000;exitX=0.5;exitY=0;exitDx=0;exitDy=0;entryX=0.796;entryY=0.923;entryDx=0;entryDy=0;entryPerimeter=0;" parent="1" source="27" target="15" edge="1">
          <mxGeometry width="160" relative="1" as="geometry">
            <mxPoint x="340" y="330" as="sourcePoint" />
            <mxPoint x="500" y="330" as="targetPoint" />
          </mxGeometry>
        </mxCell>
        <mxCell id="42" value="Implements" style="text;html=1;align=center;verticalAlign=middle;resizable=0;points=[];autosize=1;fontSize=17;fontColor=#000000;" parent="1" vertex="1">
          <mxGeometry x="365" y="140" width="100" height="30" as="geometry" />
        </mxCell>
      </root>
    </mxGraphModel>
  </diagram>
</mxfile>
